<mxfile host="app.diagrams.net" modified="2021-11-20T08:01:07.919Z" agent="5.0 (Windows NT 10.0; Win64; x64) AppleWebKit/537.36 (KHTML, like Gecko) Chrome/96.0.4664.45 Safari/537.36" etag="LTAEZWnQiEg-j-sCWOFG" version="15.8.3" type="github">
  <diagram id="kHHllIhK7e1qU1uNFGf7" name="Page-1">
    <mxGraphModel dx="1278" dy="617" grid="0" gridSize="10" guides="1" tooltips="1" connect="1" arrows="1" fold="1" page="1" pageScale="1" pageWidth="827" pageHeight="1169" math="0" shadow="0">
      <root>
        <mxCell id="0" />
        <mxCell id="1" parent="0" />
        <mxCell id="PFxBXATTRr-YFJTFHqWV-1" value="" style="rounded=0;whiteSpace=wrap;html=1;" parent="1" vertex="1">
          <mxGeometry x="220" y="96" width="161" height="531" as="geometry" />
        </mxCell>
        <mxCell id="PFxBXATTRr-YFJTFHqWV-2" value="" style="endArrow=none;html=1;rounded=0;entryX=0.996;entryY=0.471;entryDx=0;entryDy=0;entryPerimeter=0;" parent="1" edge="1">
          <mxGeometry width="50" height="50" relative="1" as="geometry">
            <mxPoint x="220" y="438.24" as="sourcePoint" />
            <mxPoint x="380.3560000000002" y="437.3410000000001" as="targetPoint" />
          </mxGeometry>
        </mxCell>
        <mxCell id="PFxBXATTRr-YFJTFHqWV-3" value="" style="shape=link;html=1;rounded=0;width=37.58620689655172;entryX=1;entryY=0.218;entryDx=0;entryDy=0;entryPerimeter=0;" parent="1" edge="1">
          <mxGeometry width="100" relative="1" as="geometry">
            <mxPoint x="220" y="303.24" as="sourcePoint" />
            <mxPoint x="381" y="302.99800000000005" as="targetPoint" />
          </mxGeometry>
        </mxCell>
        <mxCell id="PFxBXATTRr-YFJTFHqWV-4" value="" style="shape=link;html=1;rounded=0;width=37.58620689655172;entryX=1;entryY=0.218;entryDx=0;entryDy=0;entryPerimeter=0;" parent="1" edge="1">
          <mxGeometry width="100" relative="1" as="geometry">
            <mxPoint x="220" y="378.48" as="sourcePoint" />
            <mxPoint x="381" y="378.23800000000006" as="targetPoint" />
          </mxGeometry>
        </mxCell>
        <mxCell id="PFxBXATTRr-YFJTFHqWV-5" value="" style="endArrow=none;html=1;rounded=0;entryX=0.996;entryY=0.471;entryDx=0;entryDy=0;entryPerimeter=0;" parent="1" edge="1">
          <mxGeometry width="50" height="50" relative="1" as="geometry">
            <mxPoint x="220" y="480.89999999999986" as="sourcePoint" />
            <mxPoint x="380.3560000000002" y="480.0010000000001" as="targetPoint" />
          </mxGeometry>
        </mxCell>
        <mxCell id="PFxBXATTRr-YFJTFHqWV-6" value="" style="endArrow=none;html=1;rounded=0;" parent="1" edge="1">
          <mxGeometry width="50" height="50" relative="1" as="geometry">
            <mxPoint x="300.08" y="95.99999999999991" as="sourcePoint" />
            <mxPoint x="300" y="282" as="targetPoint" />
          </mxGeometry>
        </mxCell>
        <mxCell id="PFxBXATTRr-YFJTFHqWV-9" value="" style="endArrow=none;html=1;rounded=0;entryX=1.003;entryY=0.139;entryDx=0;entryDy=0;entryPerimeter=0;" parent="1" edge="1">
          <mxGeometry width="50" height="50" relative="1" as="geometry">
            <mxPoint x="299.52" y="141.18999999999988" as="sourcePoint" />
            <mxPoint x="381.00300000000004" y="140.99900000000002" as="targetPoint" />
          </mxGeometry>
        </mxCell>
        <mxCell id="PFxBXATTRr-YFJTFHqWV-10" value="" style="endArrow=none;html=1;rounded=0;entryX=1.003;entryY=0.139;entryDx=0;entryDy=0;entryPerimeter=0;" parent="1" edge="1">
          <mxGeometry width="50" height="50" relative="1" as="geometry">
            <mxPoint x="299.52" y="241.18999999999988" as="sourcePoint" />
            <mxPoint x="381.00300000000004" y="240.99900000000002" as="targetPoint" />
          </mxGeometry>
        </mxCell>
        <mxCell id="PFxBXATTRr-YFJTFHqWV-11" value="" style="endArrow=none;html=1;rounded=0;entryX=1.003;entryY=0.139;entryDx=0;entryDy=0;entryPerimeter=0;" parent="1" edge="1">
          <mxGeometry width="50" height="50" relative="1" as="geometry">
            <mxPoint x="299.52" y="187.18999999999988" as="sourcePoint" />
            <mxPoint x="381.00300000000004" y="186.99900000000002" as="targetPoint" />
          </mxGeometry>
        </mxCell>
        <mxCell id="PFxBXATTRr-YFJTFHqWV-12" value="d" style="text;html=1;strokeColor=none;fillColor=none;align=center;verticalAlign=middle;whiteSpace=wrap;rounded=0;" parent="1" vertex="1">
          <mxGeometry x="225" y="174" width="60" height="30" as="geometry" />
        </mxCell>
        <mxCell id="PFxBXATTRr-YFJTFHqWV-25" style="edgeStyle=orthogonalEdgeStyle;rounded=0;orthogonalLoop=1;jettySize=auto;html=1;curved=1;entryX=1.011;entryY=0.728;entryDx=0;entryDy=0;entryPerimeter=0;" parent="1" target="PFxBXATTRr-YFJTFHqWV-1" edge="1">
          <mxGeometry relative="1" as="geometry">
            <mxPoint x="383" y="117" as="sourcePoint" />
            <mxPoint x="464" y="270" as="targetPoint" />
            <Array as="points">
              <mxPoint x="536" y="117" />
              <mxPoint x="536" y="483" />
            </Array>
          </mxGeometry>
        </mxCell>
        <mxCell id="PFxBXATTRr-YFJTFHqWV-13" value="*last" style="text;html=1;strokeColor=none;fillColor=none;align=center;verticalAlign=middle;whiteSpace=wrap;rounded=0;" parent="1" vertex="1">
          <mxGeometry x="307" y="102" width="60" height="30" as="geometry" />
        </mxCell>
        <mxCell id="PFxBXATTRr-YFJTFHqWV-26" style="edgeStyle=orthogonalEdgeStyle;curved=1;rounded=0;orthogonalLoop=1;jettySize=auto;html=1;entryX=1;entryY=1;entryDx=0;entryDy=0;" parent="1" target="PFxBXATTRr-YFJTFHqWV-1" edge="1">
          <mxGeometry relative="1" as="geometry">
            <mxPoint x="381" y="164" as="sourcePoint" />
            <Array as="points">
              <mxPoint x="497" y="164" />
              <mxPoint x="497" y="627" />
            </Array>
          </mxGeometry>
        </mxCell>
        <mxCell id="PFxBXATTRr-YFJTFHqWV-14" value="*end" style="text;html=1;strokeColor=none;fillColor=none;align=center;verticalAlign=middle;whiteSpace=wrap;rounded=0;" parent="1" vertex="1">
          <mxGeometry x="310" y="149" width="60" height="30" as="geometry" />
        </mxCell>
        <mxCell id="PFxBXATTRr-YFJTFHqWV-15" value="*next" style="text;html=1;strokeColor=none;fillColor=none;align=center;verticalAlign=middle;whiteSpace=wrap;rounded=0;" parent="1" vertex="1">
          <mxGeometry x="310" y="201" width="60" height="30" as="geometry" />
        </mxCell>
        <mxCell id="PFxBXATTRr-YFJTFHqWV-16" value="failed" style="text;html=1;strokeColor=none;fillColor=none;align=center;verticalAlign=middle;whiteSpace=wrap;rounded=0;" parent="1" vertex="1">
          <mxGeometry x="307" y="249" width="60" height="30" as="geometry" />
        </mxCell>
        <mxCell id="PFxBXATTRr-YFJTFHqWV-17" value="max" style="text;html=1;strokeColor=none;fillColor=none;align=center;verticalAlign=middle;whiteSpace=wrap;rounded=0;" parent="1" vertex="1">
          <mxGeometry x="270.5" y="291" width="60" height="30" as="geometry" />
        </mxCell>
        <mxCell id="PFxBXATTRr-YFJTFHqWV-19" value="*current" style="text;html=1;strokeColor=none;fillColor=none;align=center;verticalAlign=middle;whiteSpace=wrap;rounded=0;" parent="1" vertex="1">
          <mxGeometry x="270.5" y="329" width="60" height="30" as="geometry" />
        </mxCell>
        <mxCell id="PFxBXATTRr-YFJTFHqWV-20" value="*chain" style="text;html=1;strokeColor=none;fillColor=none;align=center;verticalAlign=middle;whiteSpace=wrap;rounded=0;" parent="1" vertex="1">
          <mxGeometry x="270.5" y="365" width="60" height="30" as="geometry" />
        </mxCell>
        <mxCell id="PFxBXATTRr-YFJTFHqWV-21" value="*large" style="text;html=1;strokeColor=none;fillColor=none;align=center;verticalAlign=middle;whiteSpace=wrap;rounded=0;" parent="1" vertex="1">
          <mxGeometry x="270.5" y="401" width="60" height="30" as="geometry" />
        </mxCell>
        <mxCell id="PFxBXATTRr-YFJTFHqWV-22" value="*log" style="text;html=1;strokeColor=none;fillColor=none;align=center;verticalAlign=middle;whiteSpace=wrap;rounded=0;" parent="1" vertex="1">
          <mxGeometry x="270.5" y="442" width="60" height="30" as="geometry" />
        </mxCell>
        <mxCell id="PFxBXATTRr-YFJTFHqWV-23" value="Not allocated yet" style="text;html=1;strokeColor=none;fillColor=none;align=center;verticalAlign=middle;whiteSpace=wrap;rounded=0;" parent="1" vertex="1">
          <mxGeometry x="252.25" y="549" width="96.5" height="28" as="geometry" />
        </mxCell>
        <mxCell id="PFxBXATTRr-YFJTFHqWV-27" value="&lt;font style=&quot;font-size: 18px&quot;&gt;Nginx Memory pool&lt;/font&gt;" style="text;html=1;strokeColor=none;fillColor=none;align=center;verticalAlign=middle;whiteSpace=wrap;rounded=0;" parent="1" vertex="1">
          <mxGeometry x="216" y="654" width="169" height="30" as="geometry" />
        </mxCell>
      </root>
    </mxGraphModel>
  </diagram>
</mxfile>
